HIERARCHY
ROOT Hips
{
	OFFSET -28.066906 100.481125 -0.179846
	CHANNELS 6 Xposition Yposition Zposition Xrotation Yrotation Zrotation
	JOINT Chest
	{
		OFFSET 3.128965 13.089767 2.240934
		CHANNELS 3 Xrotation Yrotation Zrotation
		JOINT Chest2
		{
			OFFSET 8.273214 18.605652 6.667086
			CHANNELS 3 Xrotation Yrotation Zrotation
			JOINT Chest3
			{
				OFFSET 3.897024 14.132904 2.809628
				CHANNELS 3 Xrotation Yrotation Zrotation
				JOINT Neck
				{
					OFFSET 5.674770 15.964111 3.400043
					CHANNELS 3 Xrotation Yrotation Zrotation
					JOINT Head
					{
						OFFSET 1.783963 9.700424 3.542173
						CHANNELS 3 Xrotation Yrotation Zrotation
						End Site
						{
							OFFSET 1.801410 9.721664 3.474443
						}
					}
				}
				JOINT LeftCollar
				{
					OFFSET 8.311630 10.296173 5.168171
					CHANNELS 3 Xrotation Yrotation Zrotation
					JOINT LeftUpArm
					{
						OFFSET 16.807384 -4.508698 -2.383865
						CHANNELS 3 Xrotation Yrotation Zrotation
						JOINT LeftLowArm
						{
							OFFSET 2.824631 -24.063782 23.509226
							CHANNELS 3 Xrotation Yrotation Zrotation
							JOINT LeftHand
							{
								OFFSET -25.146229 2.718719 16.162407
								CHANNELS 3 Xrotation Yrotation Zrotation
								End Site
								{
									OFFSET -5.495854 0.594193 3.532387
								}
							}
						}
					}
				}
				JOINT RightCollar
				{
					OFFSET 0.362008 13.010544 5.692398
					CHANNELS 3 Xrotation Yrotation Zrotation
					JOINT RightUpArm
					{
						OFFSET -13.521869 9.321884 -6.225585
						CHANNELS 3 Xrotation Yrotation Zrotation
						JOINT RightLowArm
						{
							OFFSET -16.315014 25.509109 14.927810
							CHANNELS 3 Xrotation Yrotation Zrotation
							JOINT RightHand
							{
								OFFSET 7.127617 25.517136 14.107721
								CHANNELS 3 Xrotation Yrotation Zrotation
								End Site
								{
									OFFSET 1.557800 5.577042 3.083366
								}
							}
						}
					}
				}
			}
		}
	}
	JOINT LeftUpLeg
	{
		OFFSET 9.564459 -1.889816 -2.317079
		CHANNELS 3 Xrotation Yrotation Zrotation
		JOINT LeftLowLeg
		{
			OFFSET 31.321911 -34.019600 10.275883
			CHANNELS 3 Xrotation Yrotation Zrotation
			JOINT LeftFoot
			{
				OFFSET -16.492956 -35.721603 -21.272457
				CHANNELS 3 Xrotation Yrotation Zrotation
				JOINT LeftToe
				{
					OFFSET 15.189318 -17.984076 2.327515
					CHANNELS 3 Xrotation Yrotation Zrotation
					End Site
					{
						OFFSET 20.736816 -5.222329 10.112902
					}
				}
			}
		}
	}
	JOINT RightUpLeg
	{
		OFFSET -9.564507 1.889626 2.317047
		CHANNELS 3 Xrotation Yrotation Zrotation
		JOINT RightLowLeg
		{
			OFFSET 2.328552 -46.428101 9.111570
			CHANNELS 3 Xrotation Yrotation Zrotation
			JOINT RightFoot
			{
				OFFSET 12.280394 -36.861694 -22.158215
				CHANNELS 3 Xrotation Yrotation Zrotation
				JOINT RightToe
				{
					OFFSET -2.695616 -18.007288 15.100595
					CHANNELS 3 Xrotation Yrotation Zrotation
					End Site
					{
						OFFSET -9.238804 -4.823869 21.235130
					}
				}
			}
		}
	}
}
MOTION
Frames: 15
Frame Time: 0.033333
-31.189514 98.442940 -2.292960 -0.344518 2.741035 -1.264424 3.628996 -0.729674 -2.784466 -2.529421 -0.441100 1.689429 -0.679101 -3.059873 0.165145 -0.643605 -1.419165 0.752098 -0.000000 0.000001 0.000001 -0.616976 1.416326 1.721906 -7.157316 -0.631684 7.812632 2.756512 -1.975420 0.244662 -0.000002 -0.000002 0.000003 2.010357 1.977010 2.411854 -2.420678 -3.210545 1.716834 0.650433 2.085620 -3.426401 -0.000002 0.000000 0.000000 -0.074884 0.313715 7.722226 0.569577 1.445910 -8.666036 -2.581787 2.828817 6.663106 -0.000001 -0.000001 0.000000 -5.146133 0.634283 0.628249 -2.874111 -2.314439 3.971994 2.985878 0.886380 0.108481 0.000001 -0.000001 -0.000000 
-31.202785 98.422478 -2.344804 -0.626881 2.897271 -1.291967 3.938082 -0.865005 -2.729135 -2.646435 -0.359491 1.642029 -0.638609 -3.113759 0.146829 -0.399116 -1.578589 0.750136 0.000002 0.000000 -0.000000 -0.745355 1.325464 1.680148 -7.072383 -0.149824 7.888892 3.459482 -3.986247 -0.370011 0.000001 -0.000002 0.000001 1.949523 2.086606 2.391093 -2.169143 -2.624649 1.926202 1.712860 2.116927 -3.095040 0.000003 -0.000001 0.000001 0.036595 0.401769 7.632432 1.215628 1.380107 -8.277073 -2.368014 2.572090 5.896767 0.000000 -0.000002 -0.000001 -4.406095 0.498767 0.643002 -3.543279 -2.540885 3.938263 3.704711 0.570059 -0.083228 -0.000001 0.000005 0.000002 
-31.211689 98.410980 -2.396962 -0.466708 2.894383 -1.361704 3.598920 -0.724768 -2.725391 -2.395112 -0.481530 1.604200 -0.903403 -3.135885 0.166793 -0.096382 -1.681000 0.785982 0.000002 -0.000000 0.000002 -0.648247 1.798573 1.531599 -6.972258 -0.116967 7.823393 3.659540 -5.906013 -1.048628 0.000002 -0.000002 0.000001 2.117205 2.170197 2.644062 -2.029494 -2.481876 1.761168 1.468905 2.050732 -3.064424 0.000001 -0.000003 0.000000 -0.055492 0.426022 7.607342 1.042336 1.337861 -8.102635 -2.062387 2.813507 6.057540 -0.000003 0.000001 -0.000001 -4.187745 0.417744 0.748183 -3.655864 -2.560872 3.838455 3.852720 1.008613 0.106304 -0.000002 0.000002 0.000003 
-31.224976 98.390350 -2.459612 -0.844191 2.895594 -1.294252 3.479892 -0.655380 -2.790088 -2.080285 -0.642281 1.618544 -1.396299 -3.258791 0.026198 0.497884 -1.580216 0.712281 -0.000000 -0.000000 -0.000002 -0.532378 2.087012 1.492150 -6.466520 0.093621 7.971083 3.219472 -5.212091 -0.745616 -0.000003 -0.000001 0.000002 2.353817 2.205701 2.661835 -1.801419 -2.718222 1.807562 0.915383 1.872154 -3.356636 -0.000004 0.000000 -0.000002 0.295245 0.531381 7.552814 0.727762 1.349670 -8.257781 -1.958984 2.982756 6.329421 0.000001 0.000003 0.000001 -3.841917 0.385486 0.613445 -3.473537 -2.528445 4.044233 3.630237 0.944464 0.115358 -0.000002 0.000002 0.000003 
-31.228436 98.372223 -2.513692 -0.637504 2.603438 -1.297494 3.499295 -0.654749 -2.836887 -2.475490 -0.349824 1.564767 -0.814301 -3.266917 0.100329 0.147593 -1.664343 0.748601 -0.000002 0.000000 0.000001 -0.591420 1.583554 1.819030 -6.740959 -0.130133 8.319293 2.624455 -3.638467 -0.251264 0.000003 0.000004 0.000001 2.234207 2.036898 2.543003 -1.996774 -3.078994 1.726032 1.019226 1.769152 -3.455762 -0.000000 0.000000 0.000001 0.054714 0.397296 7.376594 1.043580 1.406427 -8.309956 -2.108758 2.790169 6.058843 0.000002 0.000001 -0.000000 -4.109319 0.442511 0.576187 -3.010658 -2.413114 4.005858 3.151019 0.966284 0.137291 -0.000001 0.000002 0.000004 
-31.224195 98.352150 -2.572050 -0.927320 2.668000 -1.195685 3.787157 -0.781209 -2.794108 -2.571003 -0.251761 1.503993 -0.802770 -3.035024 0.126126 -0.024587 -1.820454 0.841552 -0.000000 -0.000001 -0.000000 -0.673714 1.016062 1.924749 -6.493293 0.229109 8.213835 2.661231 -4.165714 -0.518672 -0.000000 0.000004 0.000001 1.616408 1.479960 2.389081 -1.831716 -2.815079 1.932371 -0.454700 1.706634 -3.604060 -0.000000 -0.000003 0.000000 0.231097 0.471930 7.102297 1.360618 1.401856 -8.001856 -2.501298 2.398714 5.878542 -0.000003 0.000001 0.000001 -3.982762 0.399259 0.320016 -2.535349 -2.300892 4.159427 2.347023 1.253005 0.367816 -0.000001 0.000002 -0.000002 
-31.209194 98.344254 -2.623154 -1.147407 2.070970 -1.261409 3.461406 -0.620616 -2.873473 -2.470912 -0.212494 1.400882 -0.627342 -3.137441 0.298984 0.146728 -1.762591 0.813033 -0.000000 0.000001 0.000002 -0.493976 0.921104 1.901758 -6.512508 0.275802 8.731521 2.034047 -3.838087 -0.482294 0.000001 -0.000001 -0.000001 1.978961 1.669278 2.440236 -1.695351 -2.935461 1.609432 0.321390 1.426663 -3.470257 -0.000000 -0.000003 0.000003 0.922065 0.745534 7.055876 1.061474 1.359262 -7.928304 -2.266970 2.577828 5.818835 -0.000000 0.000003 0.000001 -3.562134 0.360483 0.465925 -2.106975 -1.979740 3.815227 1.415006 1.710542 0.695785 -0.000001 0.000002 -0.000000 
-31.183996 98.348930 -2.679424 -1.849255 2.398082 -1.178942 3.508866 -0.687090 -2.682197 -2.458765 -0.162175 1.412030 -0.292638 -2.826941 0.385284 0.628456 -1.987043 0.997918 0.000000 -0.000000 -0.000000 -0.347922 1.075529 1.518113 -6.502391 -0.325702 8.539699 2.119719 -4.781183 -0.749700 0.000001 -0.000001 0.000003 1.304088 0.802157 2.516346 -0.545186 -2.010689 1.427964 0.430109 1.237162 -3.019308 -0.000001 -0.000002 0.000003 1.062460 0.658643 6.533324 2.099552 1.112743 -7.177215 -1.676744 2.927379 5.630931 0.000000 0.000002 0.000001 -2.122137 0.278872 0.167247 -2.561656 -1.995728 4.130302 0.923896 2.511095 1.308301 -0.000002 0.000002 0.000002 
-31.156933 98.362946 -2.729776 -1.792509 2.067817 -1.188391 3.346510 -0.613963 -2.693978 -3.090436 0.274839 1.372894 0.428011 -2.442083 0.634410 0.176303 -2.430342 1.290168 -0.000001 0.000001 -0.000002 -0.315327 0.502521 1.396158 -6.437424 -0.393637 8.383956 2.080386 -3.995727 -0.561446 0.000001 -0.000002 0.000003 0.497123 -0.082883 2.642321 0.340241 -1.081117 1.378445 -0.166991 1.123312 -2.671695 0.000001 -0.000003 -0.000001 1.625598 0.838820 6.354972 1.529244 1.057971 -7.050429 -1.344403 3.412798 5.807682 -0.000002 0.000001 0.000001 -1.957590 0.274668 0.165525 -2.394747 -1.817030 3.910817 0.229756 2.594884 1.322571 -0.000003 0.000000 0.000004 
-31.107769 98.407547 -2.772475 -2.798696 2.230998 -1.004150 4.493234 -1.184039 -2.414454 -4.542279 1.454489 1.176579 1.647269 -2.609068 0.872295 -0.065979 -2.498578 1.470353 -0.000003 -0.000000 -0.000000 -0.130145 0.225707 1.470417 -6.492370 -0.668621 8.549717 1.258507 -2.572714 -0.166219 0.000001 0.000001 0.000000 0.505294 -0.280553 2.593744 0.678899 -0.999057 1.316238 0.169414 0.727431 -2.409454 0.000003 -0.000002 0.000001 1.963601 0.916909 5.401513 3.104496 0.864788 -5.843830 -1.434051 2.781093 5.179374 -0.000003 0.000001 0.000001 -1.129446 0.132799 -0.207306 -2.209531 -1.824337 4.007111 -0.131968 2.233487 1.105403 -0.000000 0.000005 0.000002 
-31.034678 98.481789 -2.811558 -3.426842 1.663439 -0.770642 4.212232 -1.123258 -2.306473 -5.105848 2.093462 0.960560 2.146358 -2.499961 1.066106 0.757113 -2.850232 1.628168 -0.000003 0.000000 -0.000001 0.189474 0.979817 1.080640 -5.860565 -0.382871 8.415510 2.351060 -4.355859 -0.059530 0.000001 0.000003 -0.000000 0.835944 -0.139310 2.787243 0.894051 -1.235538 1.584702 -0.110183 0.471548 -2.357388 -0.000000 -0.000000 0.000001 2.336688 1.008031 4.274759 3.979874 0.714711 -5.046461 -2.283204 1.707957 4.651456 0.000002 0.000001 0.000001 0.058821 -0.040102 -0.329414 -2.022183 -1.633798 3.212956 -0.344551 2.739059 1.258377 -0.000001 0.000004 0.000000 
-30.941261 98.567604 -2.842687 -3.586074 2.002716 -0.484123 3.994041 -1.167458 -1.739230 -5.270093 2.482155 0.705615 2.730376 -2.618013 1.050895 0.570309 -2.983718 1.751769 -0.000004 -0.000000 -0.000001 0.271088 0.629064 0.869910 -5.344005 0.203710 8.396929 2.429232 -5.860827 -0.724632 0.000001 -0.000001 0.000001 1.320798 0.427295 2.681329 0.384801 -1.863510 1.892073 0.883243 0.643702 -2.138796 0.000001 0.000000 0.000000 1.181517 0.564298 3.189245 6.204003 0.440884 -4.068088 -3.241488 0.554732 3.978719 -0.000001 -0.000001 -0.000000 0.089412 -0.060790 -0.799152 -1.640272 -1.352822 3.412219 -0.096112 1.812052 0.763485 0.000001 0.000002 -0.000001 
-30.815918 98.700325 -2.868161 -4.313515 1.115545 -0.277845 3.681669 -1.115793 -1.473167 -5.581736 2.793819 0.584106 3.524070 -1.860360 1.359862 0.510901 -3.146506 1.805712 -0.000000 -0.000002 0.000001 0.617943 1.070252 -0.313579 -4.621064 1.326656 8.614591 3.325863 -7.710764 -1.217329 0.000003 -0.000003 0.000001 2.017680 1.087200 3.193373 0.065990 -2.281051 1.916465 1.191656 0.607249 -1.709795 -0.000001 -0.000000 -0.000002 1.980141 0.809498 1.977345 6.537843 0.378644 -3.056419 -3.042198 0.451167 3.744836 0.000001 -0.000001 0.000000 2.660501 -0.468366 -0.738516 -2.924885 -1.525803 1.780737 -0.505807 3.502093 1.536007 -0.000001 0.000004 -0.000001 
-30.638618 98.889793 -2.893713 -4.008675 -0.049972 0.436965 2.037096 -0.507394 -1.245334 -3.446459 2.171029 -0.102464 2.132108 -0.578047 1.731707 0.154807 -2.738882 1.775534 0.000002 -0.000001 -0.000000 0.681224 2.243922 -1.227287 -2.977956 2.588337 8.431355 3.955027 -8.672130 -1.176148 0.000002 0.000002 0.000003 1.855412 0.988657 3.596519 0.320670 -2.468244 2.494244 0.929027 0.318893 -1.672883 0.000003 -0.000003 0.000001 2.197810 0.669333 -0.045571 6.568012 0.074182 -1.821762 -2.715763 0.396854 2.965357 -0.000003 -0.000001 0.000001 1.833568 -0.285898 -1.496000 -0.904924 -0.263432 0.595960 -3.159007 7.680896 4.385396 -0.000002 0.000002 0.000002 
-30.451073 99.093742 -2.920660 -4.079034 -0.022653 0.990180 1.421761 -0.413049 -0.675089 -2.498329 2.048455 -0.553395 1.453769 -0.143291 1.682320 0.005969 -2.945098 1.935658 -0.000002 0.000000 -0.000002 0.810741 2.891510 -2.134202 -1.462947 3.788136 8.133279 4.847899 -8.703959 -0.612386 0.000001 0.000004 -0.000000 2.071365 1.314203 3.939823 0.696735 -2.414265 3.677657 -0.149916 0.225217 -1.665067 0.000005 0.000000 -0.000001 1.758540 0.396458 -1.816672 7.625675 -0.154108 -0.013956 -2.225474 -0.033595 1.652392 0.000000 -0.000001 -0.000000 2.135862 -0.328660 -2.129126 -0.806025 0.125197 -0.029372 -4.017063 8.875013 5.348363 -0.000002 0.000002 0.000004 
